<svg id="visual" viewBox="0 0 900 600" width="900" height="600" xmlns="http://www.w3.org/2000/svg" xmlns:xlink="http://www.w3.org/1999/xlink" version="1.1"><g><g transform="translate(436 288)"><path d="M0 -68.6L59.4 -34.3L59.4 34.3L0 68.6L-59.4 34.3L-59.4 -34.3Z" fill="none" stroke="#BFFF00" stroke-width="2"></path></g><g transform="translate(126 533)"><path d="M0 -60L52 -30L52 30L0 60L-52 30L-52 -30Z" fill="none" stroke="#BFFF00" stroke-width="2"></path></g><g transform="translate(658 310)"><path d="M0 -61L52.8 -30.5L52.8 30.5L0 61L-52.8 30.5L-52.8 -30.5Z" fill="none" stroke="#BFFF00" stroke-width="2"></path></g><g transform="translate(746 488)"><path d="M0 -49L42.4 -24.5L42.4 24.5L0 49L-42.4 24.5L-42.4 -24.5Z" fill="none" stroke="#BFFF00" stroke-width="2"></path></g><g transform="translate(44 70)"><path d="M0 -21L18.2 -10.5L18.2 10.5L0 21L-18.2 10.5L-18.2 -10.5Z" fill="none" stroke="#BFFF00" stroke-width="2"></path></g><g transform="translate(697 66)"><path d="M0 -46L39.8 -23L39.8 23L0 46L-39.8 23L-39.8 -23Z" fill="none" stroke="#BFFF00" stroke-width="2"></path></g><g transform="translate(279 573)"><path d="M0 -58L50.2 -29L50.2 29L0 58L-50.2 29L-50.2 -29Z" fill="none" stroke="#BFFF00" stroke-width="2"></path></g><g transform="translate(17 317)"><path d="M0 -50L43.3 -25L43.3 25L0 50L-43.3 25L-43.3 -25Z" fill="none" stroke="#BFFF00" stroke-width="2"></path></g><g transform="translate(481 549)"><path d="M0 -50L43.3 -25L43.3 25L0 50L-43.3 25L-43.3 -25Z" fill="none" stroke="#BFFF00" stroke-width="2"></path></g><g transform="translate(136 192)"><path d="M0 -40L34.6 -20L34.6 20L0 40L-34.6 20L-34.6 -20Z" fill="none" stroke="#BFFF00" stroke-width="2"></path></g><g transform="translate(880 195)"><path d="M0 -40L34.6 -20L34.6 20L0 40L-34.6 20L-34.6 -20Z" fill="none" stroke="#BFFF00" stroke-width="2"></path></g><g transform="translate(308 77)"><path d="M0 -63L54.6 -31.5L54.6 31.5L0 63L-54.6 31.5L-54.6 -31.5Z" fill="none" stroke="#BFFF00" stroke-width="2"></path></g><g transform="translate(506 64)"><path d="M0 -45L39 -22.5L39 22.5L0 45L-39 22.5L-39 -22.5Z" fill="none" stroke="#BFFF00" stroke-width="2"></path></g><g transform="translate(524 399)"><path d="M0 -36L31.2 -18L31.2 18L0 36L-31.2 18L-31.2 -18Z" fill="none" stroke="#BFFF00" stroke-width="2"></path></g><g transform="translate(635 581)"><path d="M0 -33L28.6 -16.5L28.6 16.5L0 33L-28.6 16.5L-28.6 -16.5Z" fill="none" stroke="#BFFF00" stroke-width="2"></path></g><g transform="translate(263 364)"><path d="M0 -60L52 -30L52 30L0 60L-52 30L-52 -30Z" stroke="#BFFF00" fill="none" stroke-width="2"></path></g><g transform="translate(828 8)"><path d="M0 -49L42.4 -24.5L42.4 24.5L0 49L-42.4 24.5L-42.4 -24.5Z" stroke="#BFFF00" fill="none" stroke-width="2"></path></g><g transform="translate(846 375)"><path d="M0 -19L16.5 -9.5L16.5 9.5L0 19L-16.5 9.5L-16.5 -9.5Z" stroke="#BFFF00" fill="none" stroke-width="2"></path></g><g transform="translate(612 174)"><path d="M0 -24L20.8 -12L20.8 12L0 24L-20.8 12L-20.8 -12Z" stroke="#BFFF00" fill="none" stroke-width="2"></path></g><g transform="translate(383 444)"><path d="M0 -41L35.5 -20.5L35.5 20.5L0 41L-35.5 20.5L-35.5 -20.5Z" stroke="#BFFF00" fill="none" stroke-width="2"></path></g><g transform="translate(885 532)"><path d="M0 -20L17.3 -10L17.3 10L0 20L-17.3 10L-17.3 -10Z" stroke="#BFFF00" fill="none" stroke-width="2"></path></g><g transform="translate(176 24)"><path d="M0 -51L44.2 -25.5L44.2 25.5L0 51L-44.2 25.5L-44.2 -25.5Z" stroke="#BFFF00" fill="none" stroke-width="2"></path></g><g transform="translate(297 219)"><path d="M0 -18L15.6 -9L15.6 9L0 18L-15.6 9L-15.6 -9Z" stroke="#BFFF00" fill="none" stroke-width="2"></path></g><g transform="translate(8 456)"><path d="M0 -41L35.5 -20.5L35.5 20.5L0 41L-35.5 20.5L-35.5 -20.5Z" stroke="#BFFF00" fill="none" stroke-width="2"></path></g></g></svg>